Coordinates
version=1
nRows=12
nColumns=28
inDegrees=yes

Units are S.I. units (second, meters, Newtons, ...)
Angles are in degrees.

endheader
time	pelvis_tilt	pelvis_list	pelvis_rotation	pelvis_tx	pelvis_ty	pelvis_tz	hip_flexion_r	hip_adduction_r	hip_rotation_r	knee_angle_r	ankle_angle_r	subtalar_angle_r	mtp_angle_r	hip_flexion_l	hip_adduction_l	hip_rotation_l	knee_angle_l	socket_flexion	socket_adduction	socket_rotation	socket_tx	socket_ty	socket_tz	foot_flex	lumbar_extension	lumbar_bending	lumbar_rotation
      0.62500000	      0.73947317	     -2.18544661	      5.64037527	      0.04848384	      0.98892016	      0.30086086	     26.88461993	      3.40717168	    -15.56938870	    -11.11862643	      7.85259268	     -8.54417123	     16.13526160	    -16.12880383	      0.64618351	     18.63415946	    -22.00254332	     -9.76658357	      0.00000000	      0.00000000	      0.00000000	      0.00000000	      0.00000000	      7.49278490	    -14.47047354	      2.30433470	     -0.90215559
      0.62916667	      0.76233909	     -2.12781779	      5.59288219	      0.04857436	      0.98898633	      0.30104368	     26.83684845	      3.39837967	    -15.47046222	    -11.09334272	      7.78242812	     -8.76617879	     16.19278797	    -16.22187326	      0.68821353	     18.55177453	    -21.81027911	     -9.65907136	      0.00000000	      0.00000000	      0.00000000	      0.00000000	      0.00000000	      7.43425047	    -14.48404882	      2.18656715	     -0.86403753
      0.63333333	      0.95206901	     -2.36929398	      5.69710889	      0.05443519	      0.98829370	      0.30062584	     26.52548646	      3.79189051	    -14.81431395	    -11.11741928	      6.05394423	    -11.59065640	     17.63197653	    -16.57276785	      0.43477660	     18.48974740	    -22.23470767	     -9.76537757	      0.00000000	      0.00000000	      0.00000000	      0.00000000	      0.00000000	      7.47665243	    -14.68020217	      2.67637251	     -1.10115471
      0.63750000	      0.94852072	     -2.45177966	      5.73963140	      0.06058206	      0.98733713	      0.30022346	     26.65843290	      3.86409823	    -14.70781026	    -11.80334856	      5.73905268	    -11.67511988	     17.65555737	    -16.83642003	      0.36214749	     18.51199683	    -22.36827420	     -9.67489419	      0.00000000	      0.00000000	      0.00000000	      0.00000000	      0.00000000	      7.40361213	    -14.62925701	      2.90496234	     -1.06231113
      0.64166667	      0.97453437	     -2.54459663	      5.71937489	      0.06679218	      0.98642083	      0.29988391	     26.81949029	      3.94169538	    -14.78393046	    -12.61875133	      5.21588292	    -11.94263321	     17.69892648	    -17.11304767	      0.30079470	     18.34901070	    -22.54760628	     -9.59686783	      0.00000000	      0.00000000	      0.00000000	      0.00000000	      0.00000000	      7.33057163	    -14.59553584	      3.14363712	     -1.02880595
      0.64583333	      0.98281787	     -2.75290819	      5.69661126	      0.07286373	      0.98554273	      0.29966338	     26.81458766	      4.26658017	    -14.23526599	    -12.93693834	      3.63707915	    -14.12114409	     19.18095353	    -17.29502595	      0.12871593	     18.20492535	    -22.90976851	     -9.62861609	      0.00000000	      0.00000000	      0.00000000	      0.00000000	      0.00000000	      7.22008864	    -14.55993997	      3.47641847	     -0.80975331
      0.65000000	      1.01492755	     -2.86538003	      5.66069578	      0.07905567	      0.98470885	      0.29931425	     26.97308830	      4.35733235	    -14.23452269	    -13.77515344	      3.21494740	    -14.25436243	     19.21981497	    -17.56551842	      0.05652876	     18.06186390	    -23.08299531	     -9.50931592	      0.00000000	      0.00000000	      0.00000000	      0.00000000	      0.00000000	      7.10728140	    -14.53987939	      3.75923895	     -0.84098848
      0.65416667	      1.05404416	     -3.06939103	      5.59611228	      0.08517531	      0.98396790	      0.29912142	     27.00070116	      4.63869268	    -13.90233843	    -14.27924805	      1.96584640	    -15.76019485	     20.51271115	    -17.77816742	     -0.09804666	     17.86774001	    -23.41221232	     -9.48006296	      0.00000000	      0.00000000	      0.00000000	      0.00000000	      0.00000000	      6.98028218	    -14.54092161	      4.10574075	     -0.70883784
      0.65833333	      1.07550135	     -3.20723713	      5.59466112	      0.09133109	      0.98328728	      0.29872712	     27.11625717	      4.75293051	    -13.80265866	    -15.03133919	      1.66261382	    -15.79362981	     20.49828673	    -18.00499318	     -0.19302795	     17.89893711	    -23.60491047	     -9.33051481	      0.00000000	      0.00000000	      0.00000000	      0.00000000	      0.00000000	      6.78685312	    -14.51992118	      4.42581975	     -0.69667542
      0.66250000	      1.15212822	     -3.38212345	      5.48382281	      0.09766329	      0.98260052	      0.29847408	     27.27245127	      4.88585107	    -14.00981128	    -15.98190074	      1.06762419	    -16.01005942	     20.47412511	    -18.25938485	     -0.29819981	     17.52372297	    -23.93194258	     -9.26209983	      0.00000000	      0.00000000	      0.00000000	      0.00000000	      0.00000000	      6.57872753	    -14.52525778	      4.74588266	     -0.64841265
      0.66666667	      1.22604749	     -3.60844419	      5.40141642	      0.10390046	      0.98202152	      0.29821218	     27.36683302	      5.09657489	    -14.03532287	    -16.78781382	      0.47212523	    -16.32255932	     20.53190155	    -18.46483309	     -0.45376125	     17.30900209	    -24.34082288	     -9.22327197	      0.00000000	      0.00000000	      0.00000000	      0.00000000	      0.00000000	      6.35814992	    -14.54594178	      5.11487785	     -0.51360368
      0.67083333	      1.31352788	     -3.83836267	      5.30593087	      0.11017553	      0.98149233	      0.29796774	     27.42455711	      5.31522947	    -14.03608716	    -17.55697056	     -0.15883028	    -16.76827868	     20.63843439	    -18.65172325	     -0.60760546	     16.95921514	    -24.80358352	     -9.18239540	      0.00000000	      0.00000000	      0.00000000	      0.00000000	      0.00000000	      6.11068130	    -14.57161177	      5.49151408	     -0.35037433
